<svg width="80" height="80" viewBox="0 0 80 80" fill="none" xmlns="http://www.w3.org/2000/svg">
<g clip-path="url(#clip0_336_214)">
<g filter="url(#filter0_d_336_214)">
<rect x="9" y="9" width="62" height="62" rx="3" stroke="#FEFEFE" stroke-width="2"/>
<path d="M61 31.5C61.5523 31.5 62 31.0523 62 30.5C62 29.9477 61.5523 29.5 61 29.5V31.5ZM44.4978 36.0665C44.5345 35.5155 44.1176 35.039 43.5665 35.0022C43.0155 34.9655 42.539 35.3824 42.5022 35.9335L44.4978 36.0665ZM41.5022 50.9335C41.4655 51.4845 41.8824 51.961 42.4335 51.9978C42.9845 52.0345 43.461 51.6176 43.4978 51.0665L41.5022 50.9335ZM34.9978 35.9335C34.961 35.3824 34.4845 34.9655 33.9335 35.0022C33.3824 35.039 32.9655 35.5155 33.0022 36.0665L34.9978 35.9335ZM34.0022 51.0665C34.039 51.6176 34.5155 52.0345 35.0665 51.9978C35.6176 51.961 36.0345 51.4845 35.9978 50.9335L34.0022 51.0665ZM25.25 43.5L24.2636 43.6644L25.25 43.5ZM54.299 31.2369L55.2638 31.5L54.299 31.2369ZM26.3607 50.1644L25.3743 50.3288L26.3607 50.1644ZM50.6393 50.1644L49.6529 50L50.6393 50.1644ZM24.1941 37.1644L23.2077 37.3288L24.1941 37.1644ZM9 17H71V15H9V17ZM25.1805 37H53V35H25.1805V37ZM49.6529 50H27.3471V52H49.6529V50ZM53.9648 36.2631L55.2638 31.5L53.3343 30.9738L52.0352 35.7369L53.9648 36.2631ZM55.2638 31.5H61V29.5H55.2638V31.5ZM42.5022 35.9335L41.5022 50.9335L43.4978 51.0665L44.4978 36.0665L42.5022 35.9335ZM33.0022 36.0665L34.0022 51.0665L35.9978 50.9335L34.9978 35.9335L33.0022 36.0665ZM27.3471 50L26.2364 43.3356L24.2636 43.6644L25.3743 50.3288L27.3471 50ZM26.2364 43.3356L25.1805 37L23.2077 37.3288L24.2636 43.6644L26.2364 43.3356ZM52.0136 35.8356L50.7636 43.3356L52.7364 43.6644L53.9864 36.1644L52.0136 35.8356ZM50.7636 43.3356L49.6529 50L51.6257 50.3288L52.7364 43.6644L50.7636 43.3356ZM51.75 42.5H25.25V44.5H51.75V42.5ZM55.2638 31.5V31.5V29.5C54.3619 29.5 53.5716 30.1036 53.3343 30.9738L55.2638 31.5ZM27.3471 50L25.3743 50.3288C25.5351 51.2932 26.3694 52 27.3471 52V50ZM49.6529 52C50.6306 52 51.4649 51.2932 51.6257 50.3288L49.6529 50V52ZM25.1805 35C23.9446 35 23.0045 36.1097 23.2077 37.3288L25.1805 37V35Z" fill="#FEFEFE"/>
<circle cx="28" cy="55" r="3.25" stroke="#FEFEFE" stroke-width="1.5"/>
<circle cx="50" cy="55" r="3.25" stroke="#FEFEFE" stroke-width="1.5"/>
</g>
</g>
<defs>
<filter id="filter0_d_336_214" x="1" y="5" width="78" height="78" filterUnits="userSpaceOnUse" color-interpolation-filters="sRGB">
<feFlood flood-opacity="0" result="BackgroundImageFix"/>
<feColorMatrix in="SourceAlpha" type="matrix" values="0 0 0 0 0 0 0 0 0 0 0 0 0 0 0 0 0 0 127 0" result="hardAlpha"/>
<feOffset dy="4"/>
<feGaussianBlur stdDeviation="3.5"/>
<feComposite in2="hardAlpha" operator="out"/>
<feColorMatrix type="matrix" values="0 0 0 0 0.388235 0 0 0 0 0.458824 0 0 0 0 0.486275 0 0 0 0.8 0"/>
<feBlend mode="normal" in2="BackgroundImageFix" result="effect1_dropShadow_336_214"/>
<feBlend mode="normal" in="SourceGraphic" in2="effect1_dropShadow_336_214" result="shape"/>
</filter>
<clipPath id="clip0_336_214">
<rect width="80" height="80" fill="white"/>
</clipPath>
</defs>
</svg>
