<svg width="80" height="80" viewBox="0 0 80 80" fill="none" xmlns="http://www.w3.org/2000/svg">
<g clip-path="url(#clip0_337_393)">
<g filter="url(#filter0_d_337_393)">
<path d="M8 70C58.4062 70 71.6693 70 72 70" stroke="#FEFEFE" stroke-width="2" stroke-linecap="round"/>
<path d="M19 15V18" stroke="#FEFEFE" stroke-width="2" stroke-linecap="round"/>
<path d="M19 48V51" stroke="#FEFEFE" stroke-width="2" stroke-linecap="round"/>
<path d="M19 59V62" stroke="#FEFEFE" stroke-width="2" stroke-linecap="round"/>
<path d="M19 26V29" stroke="#FEFEFE" stroke-width="2" stroke-linecap="round"/>
<path d="M19 37V40" stroke="#FEFEFE" stroke-width="2" stroke-linecap="round"/>
<path d="M31 48V51" stroke="#FEFEFE" stroke-width="2" stroke-linecap="round"/>
<path d="M31 59V62" stroke="#FEFEFE" stroke-width="2" stroke-linecap="round"/>
<path d="M31 15V18" stroke="#FEFEFE" stroke-width="2" stroke-linecap="round"/>
<path d="M43 15V18" stroke="#FEFEFE" stroke-width="2" stroke-linecap="round"/>
<path d="M43 26V29" stroke="#FEFEFE" stroke-width="2" stroke-linecap="round"/>
<path d="M31 26V29" stroke="#FEFEFE" stroke-width="2" stroke-linecap="round"/>
<path d="M31 37V40" stroke="#FEFEFE" stroke-width="2" stroke-linecap="round"/>
<path d="M53.5 39V43" stroke="#FEFEFE" stroke-width="2" stroke-linecap="round"/>
<path d="M53.5 49V53" stroke="#FEFEFE" stroke-width="2" stroke-linecap="round"/>
<path d="M53.5 59V63" stroke="#FEFEFE" stroke-width="2" stroke-linecap="round"/>
<path d="M44 39V43" stroke="#FEFEFE" stroke-width="2" stroke-linecap="round"/>
<path d="M44 49V53" stroke="#FEFEFE" stroke-width="2" stroke-linecap="round"/>
<path d="M44 59V63" stroke="#FEFEFE" stroke-width="2" stroke-linecap="round"/>
<path d="M63 39V43" stroke="#FEFEFE" stroke-width="2" stroke-linecap="round"/>
<path d="M63 49V53" stroke="#FEFEFE" stroke-width="2" stroke-linecap="round"/>
<path d="M63 59V63" stroke="#FEFEFE" stroke-width="2" stroke-linecap="round"/>
<path d="M52.5 34V12C52.5 10.3431 51.1569 9 49.5 9H13.5C11.8431 9 10.5 10.3431 10.5 12V67C10.5 68.6569 11.8431 70 13.5 70H39.6529" stroke="#FEFEFE" stroke-width="2"/>
<rect x="37" y="34" width="33" height="36" rx="2" stroke="#FEFEFE" stroke-width="2"/>
</g>
</g>
<defs>
<filter id="filter0_d_337_393" x="0" y="5" width="80" height="77" filterUnits="userSpaceOnUse" color-interpolation-filters="sRGB">
<feFlood flood-opacity="0" result="BackgroundImageFix"/>
<feColorMatrix in="SourceAlpha" type="matrix" values="0 0 0 0 0 0 0 0 0 0 0 0 0 0 0 0 0 0 127 0" result="hardAlpha"/>
<feOffset dy="4"/>
<feGaussianBlur stdDeviation="3.5"/>
<feComposite in2="hardAlpha" operator="out"/>
<feColorMatrix type="matrix" values="0 0 0 0 0.388235 0 0 0 0 0.458824 0 0 0 0 0.486275 0 0 0 0.8 0"/>
<feBlend mode="normal" in2="BackgroundImageFix" result="effect1_dropShadow_337_393"/>
<feBlend mode="normal" in="SourceGraphic" in2="effect1_dropShadow_337_393" result="shape"/>
</filter>
<clipPath id="clip0_337_393">
<rect width="80" height="80" fill="white"/>
</clipPath>
</defs>
</svg>
