<svg width="81" height="80" viewBox="0 0 81 80" fill="none" xmlns="http://www.w3.org/2000/svg">
<g clip-path="url(#clip0_337_267)">
<g filter="url(#filter0_d_337_267)">
<path d="M8.5 37L39.8415 9.57619C40.2185 9.24629 40.7815 9.24629 41.1585 9.57619L72.5 37" stroke="#FEFEFE" stroke-width="2.5" stroke-linecap="round"/>
<path d="M12.5 33.5211V69C12.5 69.5523 12.9477 70 13.5 70H67.5C68.0523 70 68.5 69.5523 68.5 69V33" stroke="#FEFEFE" stroke-width="2.5"/>
<path d="M23.5 54C23.5 53.4477 23.9477 53 24.5 53H40.5V69H24.5C23.9477 69 23.5 68.5523 23.5 68V54Z" stroke="#FEFEFE" stroke-width="2"/>
<path d="M48.5 37C49.0523 37 49.5 37.4477 49.5 38V52H32.5V38C32.5 37.4477 32.9477 37 33.5 37H48.5Z" stroke="#FEFEFE" stroke-width="2"/>
<path d="M40.5 53H56.5C57.0523 53 57.5 53.4477 57.5 54V68C57.5 68.5523 57.0523 69 56.5 69H40.5V53Z" stroke="#FEFEFE" stroke-width="2"/>
<path d="M43 40.5H47" stroke="#FEFEFE" stroke-width="1.5" stroke-linecap="round"/>
<path d="M32.5 57H36.5" stroke="#FEFEFE" stroke-width="1.5" stroke-linecap="round"/>
<path d="M50.5 57H54.5" stroke="#FEFEFE" stroke-width="1.5" stroke-linecap="round"/>
</g>
</g>
<defs>
<filter id="filter0_d_337_267" x="0.25" y="5.07874" width="80.5" height="77.1713" filterUnits="userSpaceOnUse" color-interpolation-filters="sRGB">
<feFlood flood-opacity="0" result="BackgroundImageFix"/>
<feColorMatrix in="SourceAlpha" type="matrix" values="0 0 0 0 0 0 0 0 0 0 0 0 0 0 0 0 0 0 127 0" result="hardAlpha"/>
<feOffset dy="4"/>
<feGaussianBlur stdDeviation="3.5"/>
<feComposite in2="hardAlpha" operator="out"/>
<feColorMatrix type="matrix" values="0 0 0 0 0.388235 0 0 0 0 0.458824 0 0 0 0 0.486275 0 0 0 0.8 0"/>
<feBlend mode="normal" in2="BackgroundImageFix" result="effect1_dropShadow_337_267"/>
<feBlend mode="normal" in="SourceGraphic" in2="effect1_dropShadow_337_267" result="shape"/>
</filter>
<clipPath id="clip0_337_267">
<rect width="80" height="80" fill="white" transform="translate(0.5)"/>
</clipPath>
</defs>
</svg>
